# xmcd
#
# Track frame offsets:
#	182
#	32245
#	55472
#	77465
#	100332
#
# Disc length: 1695 seconds
#
# Revision: 1
# Processed by: cddbd v1.4PL0 Copyright (c) Steve Scherf et al.
# Submitted via: audiograbber 1.81.01
#
DISCID=38069d05
DTITLE=St Germain - french traxx ep
DYEAR=1993
DGENRE=
TTITLE0=The First Time
TTITLE1=Sexy and Smooth
TTITLE2=Dance Lady
TTITLE3=Funky Attack
TTITLE4=Mignonne
EXTD=
EXTT0=
EXTT1=
EXTT2=
EXTT3=
EXTT4=
PLAYORDER=
